<?xml version="1.0" standalone="no"?>
<!DOCTYPE svg PUBLIC "-//W3C//DTD SVG 20010904//EN"
 "http://www.w3.org/TR/2001/REC-SVG-20010904/DTD/svg10.dtd">
<svg version="1.0" xmlns="http://www.w3.org/2000/svg"
 width="512.000000pt" height="512.000000pt" viewBox="0 0 512.000000 512.000000"
 preserveAspectRatio="xMidYMid meet">
<metadata>
Created by potrace 1.11, written by Peter Selinger 2001-2013
</metadata>
<g transform="translate(0.000000,512.000000) scale(0.100000,-0.100000)"
fill="#000000" stroke="none">
<path d="M0 2560 l0 -2560 2560 0 2560 0 0 2560 0 2560 -2560 0 -2560 0 0
-2560z m2627 1605 c50 -21 72 -42 94 -90 22 -48 24 -94 5 -138 -15 -36 -73
-97 -93 -97 -9 0 -13 -17 -13 -59 l0 -59 53 -7 c376 -51 685 -337 762 -707 11
-52 15 -144 15 -362 l0 -292 58 -18 c147 -46 293 -166 362 -298 19 -38 41 -68
48 -68 21 0 86 -37 108 -62 30 -32 50 -76 59 -125 5 -34 3 -45 -14 -62 -12
-12 -27 -21 -34 -21 -27 0 -54 30 -60 66 -4 20 -19 50 -33 66 -23 23 -36 28
-73 28 -64 -1 -111 -44 -111 -102 0 -38 -41 -65 -75 -50 -54 25 -39 127 29
197 23 23 48 44 56 47 13 4 12 11 -5 44 -48 92 -166 191 -274 229 l-41 14 0
-372 -1 -372 -194 -260 c-107 -143 -205 -268 -216 -277 -20 -17 -57 -18 -474
-18 -249 0 -460 3 -469 6 -9 3 -108 129 -221 278 l-205 272 0 372 0 372 -50
-19 c-106 -40 -218 -136 -265 -226 -17 -32 -18 -39 -5 -43 8 -3 33 -24 56 -47
68 -70 83 -172 29 -197 -36 -16 -70 10 -78 60 -10 57 -49 92 -103 92 -57 0
-102 -37 -110 -92 -9 -50 -43 -76 -79 -60 -85 39 10 234 125 259 19 4 38 27
75 90 80 137 199 233 347 279 l57 17 3 316 c3 259 7 327 21 376 90 317 318
552 619 639 46 13 109 27 141 30 l57 7 0 54 c0 50 -2 56 -29 69 -64 34 -108
118 -96 184 20 115 137 180 242 137z"/>
<path d="M2519 4052 c-45 -38 -16 -122 43 -122 25 0 68 44 68 70 0 26 -43 70
-68 70 -11 0 -30 -8 -43 -18z"/>
<path d="M2420 3601 c-190 -35 -384 -159 -495 -315 -62 -89 -94 -157 -121
-264 -21 -81 -24 -118 -24 -263 l0 -169 780 0 780 0 0 171 c0 195 -13 272 -66
387 -96 210 -270 363 -489 431 -78 25 -284 37 -365 22z m-99 -262 c86 -26 148
-110 149 -200 1 -180 -206 -281 -344 -167 -50 41 -77 98 -77 163 0 65 18 110
64 153 58 56 131 73 208 51z m638 -15 c130 -65 157 -236 53 -337 -104 -102
-271 -75 -336 54 -43 88 -30 176 39 244 68 69 156 83 244 39z m-50 -555 c13
-24 13 -29 -2 -53 l-17 -26 -330 0 c-329 0 -329 0 -344 22 -21 30 -20 44 4 68
20 20 31 20 347 18 l327 -3 15 -26z"/>
<path d="M2208 3224 c-35 -18 -48 -43 -48 -89 0 -47 24 -81 65 -95 44 -15 80
-4 110 32 37 44 34 91 -9 134 -38 38 -73 43 -118 18z"/>
<path d="M2794 3206 c-45 -45 -47 -95 -5 -136 38 -39 75 -47 118 -26 72 34 78
135 9 177 -47 29 -82 25 -122 -15z"/>
<path d="M1780 2025 l0 -455 780 0 780 0 0 455 0 455 -780 0 -780 0 0 -455z
m994 319 c37 -36 22 -59 -104 -161 l-121 -98 104 -3 c88 -2 107 -6 122 -22 32
-36 12 -62 -171 -221 -97 -85 -182 -158 -191 -162 -41 -24 -89 27 -67 72 5 10
60 63 123 117 l115 99 -95 2 c-52 2 -104 5 -117 8 -30 7 -47 51 -30 76 7 10
94 84 192 164 182 147 208 161 240 129z"/>
<path d="M1846 1448 c5 -7 73 -100 152 -205 l144 -193 75 0 c66 0 74 2 69 18
-8 28 -67 314 -73 355 l-6 37 -184 0 c-145 0 -183 -3 -177 -12z"/>
<path d="M2320 1450 c0 -5 18 -96 40 -201 22 -106 40 -193 40 -195 0 -2 72 -4
159 -4 143 0 160 2 165 18 3 9 22 94 41 187 20 94 38 178 41 188 5 16 -11 17
-240 17 -154 0 -246 -4 -246 -10z"/>
<path d="M2915 1448 c-2 -7 -21 -100 -43 -205 l-40 -193 74 0 73 0 143 193
c79 105 147 198 152 205 6 9 -32 12 -174 12 -136 0 -182 -3 -185 -12z"/>
</g>
</svg>
